<svg width="17" height="17" viewBox="0 0 17 17" fill="none" xmlns="http://www.w3.org/2000/svg">
<path d="M13.406 8.43826C13.406 11.1468 11.2104 13.3426 8.50199 13.3426C5.79333 13.3426 3.59766 11.1468 3.59766 8.43826C3.59766 5.72972 5.79326 3.53394 8.50199 3.53394C11.2105 3.53394 13.406 5.72968 13.406 8.43826Z" fill="#FFC107"/>
<path d="M8.50296 2.16353C8.67928 2.16353 8.82232 2.02063 8.82232 1.84416V0.319364C8.82232 0.142897 8.67928 0 8.50296 0C8.32664 0 8.18359 0.142897 8.18359 0.319364V1.84416C8.18345 2.02063 8.32664 2.16353 8.50296 2.16353Z" fill="#FFC107"/>
<path d="M8.50296 14.8367C8.32664 14.8367 8.18359 14.9796 8.18359 15.156V16.681C8.18359 16.8575 8.32664 17.0004 8.50296 17.0004C8.67928 17.0004 8.82232 16.8575 8.82232 16.681V15.156C8.82232 14.9796 8.67928 14.8367 8.50296 14.8367Z" fill="#FFC107"/>
<path d="M3.56637 4.01972C3.62876 4.08196 3.71061 4.11315 3.79231 4.11315C3.87415 4.11315 3.95585 4.08211 4.01824 4.01972C4.14301 3.89495 4.14301 3.69263 4.01824 3.56785L2.93983 2.48971C2.81506 2.36508 2.61289 2.36508 2.48811 2.48971C2.36334 2.61433 2.36334 2.8168 2.48811 2.94158L3.56637 4.01972Z" fill="#FFC107"/>
<path d="M13.432 12.9805C13.3072 12.8558 13.1051 12.8558 12.9803 12.9805C12.8555 13.1052 12.8555 13.3075 12.9803 13.4323L14.0584 14.5104C14.1208 14.5728 14.2027 14.6038 14.2844 14.6038C14.3662 14.6038 14.4479 14.5728 14.5103 14.5104C14.6351 14.3858 14.6351 14.1835 14.5103 14.0587L13.432 12.9805Z" fill="#FFC107"/>
<path d="M1.84444 8.18042H0.319366C0.143046 8.18042 0 8.32347 0 8.49978C0 8.67625 0.143046 8.81915 0.319366 8.81915H1.84444C2.02076 8.81915 2.1638 8.6761 2.1638 8.49978C2.1638 8.32347 2.0209 8.18042 1.84444 8.18042Z" fill="#FFC107"/>
<path d="M16.6803 8.18042H15.1553C14.979 8.18042 14.8359 8.32332 14.8359 8.49978C14.8359 8.67625 14.979 8.81915 15.1553 8.81915H16.6803C16.8566 8.81915 16.9996 8.67625 16.9996 8.49978C16.9998 8.32317 16.8566 8.18042 16.6803 8.18042Z" fill="#FFC107"/>
<path d="M3.56652 12.9802L2.48811 14.0587C2.36334 14.1835 2.36334 14.3858 2.48811 14.5105C2.5505 14.5729 2.63235 14.6039 2.71404 14.6039C2.79589 14.6039 2.87759 14.5729 2.93998 14.5105L4.01839 13.4319C4.14316 13.3071 4.14316 13.1048 4.01839 12.9802C3.89346 12.8556 3.6913 12.8556 3.56652 12.9802Z" fill="#FFC107"/>
<path d="M14.0584 2.48958L12.9803 3.56771C12.8555 3.69249 12.8555 3.89481 12.9803 4.01943C13.0427 4.08182 13.1245 4.11287 13.2062 4.11287C13.2881 4.11287 13.3698 4.08182 13.4322 4.01943L14.5103 2.9413C14.6351 2.81652 14.6351 2.61421 14.5103 2.48958C14.3854 2.3648 14.1832 2.3648 14.0584 2.48958Z" fill="#FFC107"/>
</svg>
